<svg xmlns="http://www.w3.org/2000/svg" width="1200" height="400" viewBox="0 0 1200 400" fill="none" role="img" aria-label="SmallGrid.uk logo">
  <defs>
    <linearGradient id="sg-blue" x1="70" y1="75" x2="235" y2="300" gradientUnits="userSpaceOnUse">
      <stop offset="0" stop-color="#1E88FF" />
      <stop offset="1" stop-color="#0A66FF" />
    </linearGradient>
    <linearGradient id="sg-teal" x1="40" y1="40" x2="285" y2="325" gradientUnits="userSpaceOnUse">
      <stop offset="0" stop-color="#0F5A52" />
      <stop offset="1" stop-color="#0E3D39" />
    </linearGradient>
    <filter id="soft-shadow" x="-20%" y="-20%" width="140%" height="140%">
      <feDropShadow dx="0" dy="12" stdDeviation="14" flood-color="#0E3D39" flood-opacity="0.12" />
    </filter>
  </defs>

  <g transform="translate(56 66)" filter="url(#soft-shadow)">
    <rect x="0" y="0" width="268" height="268" rx="62" fill="#FFFFFF" />
    <rect x="8" y="8" width="252" height="252" rx="55" stroke="url(#sg-teal)" stroke-width="12" />
    <g transform="translate(67 64)" stroke="url(#sg-teal)" stroke-width="8" stroke-linecap="round">
      <path d="M0 23H67H134" />
      <path d="M0 70H67H134" />
      <path d="M0 117H67H134" />
      <path d="M0 23V70V117" />
      <path d="M67 23V70V117" />
      <path d="M134 23V70V117" />
    </g>
    <g transform="translate(49 69)" fill="url(#sg-teal)">
      <rect x="0" y="0" width="36" height="36" rx="9" />
      <rect x="134" y="0" width="36" height="36" rx="9" />
      <rect x="67" y="47" width="36" height="36" rx="9" />
      <rect x="0" y="94" width="36" height="36" rx="9" />
      <rect x="134" y="94" width="36" height="36" rx="9" />
    </g>
    <g transform="translate(49 69)" fill="url(#sg-blue)">
      <circle cx="85" cy="18" r="20" />
      <circle cx="18" cy="65" r="20" />
      <circle cx="152" cy="65" r="20" />
      <circle cx="85" cy="112" r="20" />
    </g>
  </g>

  <g transform="translate(380 155)">
    <text x="0" y="0" font-family="Plus Jakarta Sans, Inter, ui-sans-serif, system-ui, -apple-system, Segoe UI, Roboto, Arial, sans-serif" font-size="96" font-weight="800" fill="#0E3D39" letter-spacing="-3">SmallGrid</text>
    <text x="553" y="0" font-family="Plus Jakarta Sans, Inter, ui-sans-serif, system-ui, -apple-system, Segoe UI, Roboto, Arial, sans-serif" font-size="96" font-weight="800" fill="#0A66FF" letter-spacing="-3">.uk</text>
    <text x="3" y="72" font-family="Inter, ui-sans-serif, system-ui, -apple-system, Segoe UI, Roboto, Arial, sans-serif" font-size="32" font-weight="500" fill="#0E3D39" letter-spacing="4">Tiny tools. Solid systems.</text>
  </g>
</svg>
