<svg xmlns="http://www.w3.org/2000/svg" width="256" height="256" viewBox="0 0 256 256" fill="none" role="img" aria-label="SmallGrid icon">
  <defs>
    <linearGradient id="sg-accent" x1="0" y1="0" x2="1" y2="1">
      <stop offset="0" stop-color="#38BDF8"></stop>
      <stop offset="0.6" stop-color="#2563EB"></stop>
      <stop offset="1" stop-color="#1D4ED8"></stop>
    </linearGradient>
  </defs>

  <rect x="18" y="18" width="220" height="220" rx="54" fill="#FFFFFF"></rect>
  <rect x="18.5" y="18.5" width="219" height="219" rx="53.5" stroke="#E2E8F0"></rect>

  <g transform="translate(64,64)">
    <g fill="#E2E8F0">
      <rect x="0" y="0" width="34" height="34" rx="10"></rect>
      <rect x="47" y="0" width="34" height="34" rx="10"></rect>
      <rect x="94" y="0" width="34" height="34" rx="10"></rect>

      <rect x="0" y="47" width="34" height="34" rx="10"></rect>
      <rect x="47" y="47" width="34" height="34" rx="10"></rect>
      <rect x="94" y="47" width="34" height="34" rx="10"></rect>

      <rect x="0" y="94" width="34" height="34" rx="10"></rect>
      <rect x="47" y="94" width="34" height="34" rx="10"></rect>
      <rect x="94" y="94" width="34" height="34" rx="10"></rect>
    </g>

    <g fill="url(#sg-accent)">
      <rect x="0" y="0" width="34" height="34" rx="10"></rect>
      <rect x="47" y="0" width="34" height="34" rx="10"></rect>
      <rect x="94" y="47" width="34" height="34" rx="10"></rect>
      <rect x="47" y="94" width="34" height="34" rx="10"></rect>
      <rect x="0" y="94" width="34" height="34" rx="10"></rect>
    </g>

    <circle cx="111" cy="17" r="9" fill="#0F172A"></circle>
    <circle cx="111" cy="17" r="5" fill="#FFFFFF"></circle>

    <path d="M111 17
             C 94 17, 80 17, 70 17
             C 54 17, 47 24, 47 36
             C 47 58, 86 58, 109 70
             C 130 80, 126 120, 76 124
             C 45 126, 28 125, 17 124" stroke="#0F172A" stroke-opacity="0.22" stroke-width="7" fill="none" stroke-linecap="round"></path>
  </g>
</svg>
