<svg xmlns="http://www.w3.org/2000/svg" width="256" height="256" viewBox="0 0 256 256" fill="none" role="img" aria-label="SmallGrid icon monochrome">
  <rect x="18" y="18" width="220" height="220" rx="52" fill="#FFFFFF" />
  <rect x="24" y="24" width="208" height="208" rx="46" stroke="#0E3D39" stroke-width="10" />

  <g stroke="#0E3D39" stroke-width="8" stroke-linecap="round">
    <path d="M76 82H128H180" />
    <path d="M76 128H128H180" />
    <path d="M76 174H128H180" />
    <path d="M76 82V128V174" />
    <path d="M128 82V128V174" />
    <path d="M180 82V128V174" />
  </g>

  <g fill="#0E3D39">
    <rect x="58" y="64" width="36" height="36" rx="9" />
    <rect x="162" y="64" width="36" height="36" rx="9" />
    <rect x="110" y="110" width="36" height="36" rx="9" />
    <rect x="58" y="156" width="36" height="36" rx="9" />
    <rect x="162" y="156" width="36" height="36" rx="9" />
    <circle cx="128" cy="82" r="20" />
    <circle cx="76" cy="128" r="20" />
    <circle cx="180" cy="128" r="20" />
    <circle cx="128" cy="174" r="20" />
  </g>
</svg>
